Coordinates
version=1
nRows=16
nColumns=22
inDegrees=yes

Units are S.I. units (second, meters, Newtons, ...)
If the header above contains a line with 'inDegrees', this indicates whether rotational values are in degrees (yes) or radians (no).

endheader
time	pelvis_tilt	pelvis_list	pelvis_rotation	pelvis_tx	pelvis_ty	pelvis_tz	hip_flexion_r	hip_adduction_r	hip_rotation_r	knee_angle_r	ankle_angle_r	subtalar_angle_r	hip_flexion_l	hip_adduction_l	hip_rotation_l	knee_angle_l	ankle_angle_l	subtalar_angle_l	lumbar_extension	lumbar_bending	lumbar_rotation
      4.36000000	      3.13686397	     -0.61194189	    -95.89386846	      0.38870048	      1.00434737	      0.81784035	      3.81612156	     -8.57413196	     -0.56048176	    -51.73881170	      5.16361630	     -2.28845752	     15.68300332	      0.83752466	    -10.37379328	    -19.67662119	      4.78384343	      1.84898981	     -1.77588741	     -5.89100478	      1.69444495
      4.37000000	      2.99490494	     -0.56694193	    -96.25132247	      0.39032328	      1.00550629	      0.82293091	      4.74537436	     -8.33549347	     -0.57996600	    -51.95565525	      5.75234484	     -2.78121130	     15.24777728	      0.79484682	    -10.63650473	    -19.42215250	      4.90355619	      1.67380535	     -1.91777711	     -5.79173762	      1.44442361
      4.38000000	      2.84512487	     -0.51820195	    -96.59053976	      0.39182854	      1.00664571	      0.82782995	      5.64555266	     -8.04837797	     -0.60285935	    -52.00129682	      6.26580694	     -3.06693938	     14.81621318	      0.73755585	    -10.92572919	    -19.14591187	      5.01383701	      1.54312468	     -2.05971882	     -5.68894253	      1.18175401
      4.39000000	      2.69011718	     -0.45673584	    -96.89946591	      0.39326373	      1.00776449	      0.83261347	      6.51130140	     -7.74117987	     -0.68420701	    -51.87009465	      6.73242895	     -3.20282023	     14.36800969	      0.68702733	    -11.15097462	    -18.79554666	      5.08126903	      1.45672496	     -2.17689650	     -5.58237463	      0.93492620
      4.40000000	      2.54613630	     -0.37046114	    -97.20143332	      0.39459833	      1.00878671	      0.83723717	      7.37867920	     -7.43806859	     -0.80526443	    -51.60526212	      7.16751945	     -3.25177024	     13.96050788	      0.63282456	    -11.44715706	    -18.45207391	      5.15424517	      1.34132852	     -2.26248186	     -5.48518985	      0.68783297
      4.41000000	      2.40825191	     -0.24339862	    -97.49442738	      0.39586049	      1.00968846	      0.84172370	      8.26207913	     -7.14469652	     -0.97323592	    -51.22414253	      7.59784369	     -3.06635766	     13.60938210	      0.57399664	    -11.77627132	    -18.11628190	      5.23569568	      1.12856169	     -2.29461411	     -5.38632717	      0.44983484
      4.42000000	      2.26638084	     -0.14279820	    -97.73211274	      0.39711700	      1.01059957	      0.84613238	      9.05223631	     -6.87807508	     -1.25648012	    -50.70913637	      8.10212430	     -2.70178855	     13.22307478	      0.53177105	    -12.01945863	    -17.75037866	      5.29105336	      0.99010923	     -2.35626640	     -5.28355667	      0.19124958
      4.43000000	      2.11727284	     -0.04363921	    -97.94191827	      0.39831950	      1.01147501	      0.85043605	      9.78844764	     -6.62120701	     -1.60224569	    -50.09239626	      8.61043330	     -2.26342794	     12.84458393	      0.48348167	    -12.23890376	    -17.38804171	      5.34540714	      0.87986903	     -2.41730991	     -5.17082801	     -0.06803317
      4.44000000	      1.95456070	      0.05337307	    -98.12269854	      0.39946414	      1.01231558	      0.85464434	     10.46462896	     -6.36669929	     -2.00609298	    -49.38761719	      9.12041654	     -1.81849906	     12.47715734	      0.42160972	    -12.42704847	    -17.04214693	      5.40590889	      0.78289242	     -2.47818588	     -5.04136613	     -0.33634326
      4.45000000	      1.77990100	      0.15028374	    -98.27530603	      0.40054968	      1.01312574	      0.85874988	     11.08371315	     -6.11197584	     -2.45046797	    -48.60879128	      9.60041739	     -1.38197569	     12.12371678	      0.34822166	    -12.57620340	    -16.71099416	      5.45805650	      0.69065419	     -2.53789394	     -4.89717976	     -0.60188590
      4.46000000	      1.59242498	      0.24732873	    -98.39975512	      0.40158889	      1.01389686	      0.86274723	     11.65003199	     -5.85692381	     -2.93101070	    -47.77013847	     10.05714498	     -0.99965215	     11.78596750	      0.26149625	    -12.68755242	    -16.39842159	      5.51108244	      0.60310041	     -2.59627314	     -4.73434560	     -0.86973280
      4.47000000	      1.40051516	      0.34680554	    -98.50379894	      0.40257506	      1.01462439	      0.86664955	     12.16931185	     -5.60552856	     -3.42983055	    -46.87881382	     10.47956939	     -0.66367838	     11.46536575	      0.16880606	    -12.76520448	    -16.10350351	      5.55804808	      0.51332254	     -2.64353290	     -4.56132656	     -1.13346145
      4.48000000	      1.20348126	      0.45028644	    -98.58523083	      0.40351360	      1.01530265	      0.87045359	     12.64449066	     -5.35323991	     -3.93723957	    -45.93742462	     10.87946249	     -0.36397193	     11.16279987	      0.06901827	    -12.81168707	    -15.82372240	      5.60507003	      0.41259150	     -2.67953021	     -4.37669068	     -1.39271238
      4.49000000	      1.00770953	      0.55715066	    -98.65261031	      0.40441692	      1.01592001	      0.87416790	     13.08232729	     -5.10401334	     -4.43762916	    -44.95637206	     11.26192812	     -0.12385215	     10.87653865	     -0.03167844	    -12.84303370	    -15.55675666	      5.66515088	      0.30588331	     -2.70179330	     -4.18300174	     -1.64456126
      4.50000000	      0.81262906	      0.66732142	    -98.70672113	      0.40527091	      1.01648306	      0.87779472	     13.48179184	     -4.84928450	     -4.91074700	    -43.93119441	     11.63100621	      0.08518111	     10.60312847	     -0.13460313	    -12.86364449	    -15.29496988	      5.72873680	      0.18559117	     -2.71149706	     -3.98516850	     -1.87990854
      4.51000000	      0.62106688	      0.78083367	    -98.75312949	      0.40607061	      1.01699460	      0.88134348	     13.84342538	     -4.58693254	     -5.33614841	    -42.85798042	     11.98512809	      0.26883117	     10.34042654	     -0.23781121	    -12.88344441	    -15.03541959	      5.79857753	      0.05441777	     -2.70858844	     -3.78745765	     -2.09385168
